<svg xmlns="http://www.w3.org/2000/svg" width="1200" height="675" viewBox="0 0 1200 675" role="img">
<defs><marker id="arrow" markerWidth="12" markerHeight="12" refX="10" refY="6" orient="auto"><path d="M0,0 L12,6 L0,12 z" fill="#5B677A"/></marker><filter id="shadow" x="-20%" y="-20%" width="140%" height="140%"><feDropShadow dx="0" dy="4" stdDeviation="5" flood-opacity="0.14"/></filter></defs>
<rect width="1200" height="675" fill="#F5F7FA"/>
<rect width="1200" height="86" fill="#12355B"/>
<text x="48" y="55" font-family="Arial, Helvetica, sans-serif" font-size="34" font-weight="700" fill="white">Common Network Topologies</text>
<text x="170" y="140" text-anchor="middle" font-family="Arial, Helvetica, sans-serif" font-size="22" font-weight="700" fill="#247BA0">STAR</text>
<circle cx="170" cy="300" r="45" fill="#247BA0" filter="url(#shadow)"/>
<text x="170" y="298" text-anchor="middle" font-family="Arial, Helvetica, sans-serif" font-size="21" font-weight="700" fill="white">SW</text>
<circle cx="290.0" cy="300.0" r="25" fill="#DCEFFC" stroke="#247BA0" stroke-width="3"/>
<line x1="290.0" y1="300.0" x2="170" y2="300" stroke="#5B677A" stroke-width="2" marker-end="url(#arrow)"/>
<circle cx="207.1" cy="414.1" r="25" fill="#DCEFFC" stroke="#247BA0" stroke-width="3"/>
<line x1="207.0820393249937" y1="414.12678195541844" x2="170" y2="300" stroke="#5B677A" stroke-width="2" marker-end="url(#arrow)"/>
<circle cx="72.9" cy="370.5" r="25" fill="#DCEFFC" stroke="#247BA0" stroke-width="3"/>
<line x1="72.91796067500631" y1="370.5342302750968" x2="170" y2="300" stroke="#5B677A" stroke-width="2" marker-end="url(#arrow)"/>
<circle cx="72.9" cy="229.5" r="25" fill="#DCEFFC" stroke="#247BA0" stroke-width="3"/>
<line x1="72.9179606750063" y1="229.46576972490323" x2="170" y2="300" stroke="#5B677A" stroke-width="2" marker-end="url(#arrow)"/>
<circle cx="207.1" cy="185.9" r="25" fill="#DCEFFC" stroke="#247BA0" stroke-width="3"/>
<line x1="207.08203932499367" y1="185.87321804458156" x2="170" y2="300" stroke="#5B677A" stroke-width="2" marker-end="url(#arrow)"/>
<text x="450" y="140" text-anchor="middle" font-family="Arial, Helvetica, sans-serif" font-size="22" font-weight="700" fill="#4C956C">BUS</text>
<line x1="350" y1="300" x2="550" y2="300" stroke="#4C956C" stroke-width="8"/>
<circle cx="370" cy="230" r="24" fill="#DFF2E5" stroke="#4C956C" stroke-width="3"/>
<line x1="370" y1="254" x2="370" y2="300" stroke="#4C956C" stroke-width="3"/>
<circle cx="420" cy="230" r="24" fill="#DFF2E5" stroke="#4C956C" stroke-width="3"/>
<line x1="420" y1="254" x2="420" y2="300" stroke="#4C956C" stroke-width="3"/>
<circle cx="480" cy="230" r="24" fill="#DFF2E5" stroke="#4C956C" stroke-width="3"/>
<line x1="480" y1="254" x2="480" y2="300" stroke="#4C956C" stroke-width="3"/>
<circle cx="530" cy="230" r="24" fill="#DFF2E5" stroke="#4C956C" stroke-width="3"/>
<line x1="530" y1="254" x2="530" y2="300" stroke="#4C956C" stroke-width="3"/>
<text x="750" y="140" text-anchor="middle" font-family="Arial, Helvetica, sans-serif" font-size="22" font-weight="700" fill="#F28F3B">RING</text>
<circle cx="750" cy="300" r="105" fill="none" stroke="#F28F3B" stroke-width="7"/>
<circle cx="855.0" cy="300.0" r="24" fill="#FCE9D8" stroke="#F28F3B" stroke-width="3"/>
<circle cx="802.5" cy="390.9" r="24" fill="#FCE9D8" stroke="#F28F3B" stroke-width="3"/>
<circle cx="697.5" cy="390.9" r="24" fill="#FCE9D8" stroke="#F28F3B" stroke-width="3"/>
<circle cx="645.0" cy="300.0" r="24" fill="#FCE9D8" stroke="#F28F3B" stroke-width="3"/>
<circle cx="697.5" cy="209.1" r="24" fill="#FCE9D8" stroke="#F28F3B" stroke-width="3"/>
<circle cx="802.5" cy="209.1" r="24" fill="#FCE9D8" stroke="#F28F3B" stroke-width="3"/>
<text x="1030" y="140" text-anchor="middle" font-family="Arial, Helvetica, sans-serif" font-size="22" font-weight="700" fill="#6C5B7B">MESH</text>
<line x1="940" y1="220" x2="1100" y2="220" stroke="#6C5B7B" stroke-width="2" opacity="0.65"/>
<line x1="940" y1="220" x2="920" y2="380" stroke="#6C5B7B" stroke-width="2" opacity="0.65"/>
<line x1="940" y1="220" x2="1120" y2="380" stroke="#6C5B7B" stroke-width="2" opacity="0.65"/>
<line x1="940" y1="220" x2="1020" y2="470" stroke="#6C5B7B" stroke-width="2" opacity="0.65"/>
<line x1="1100" y1="220" x2="920" y2="380" stroke="#6C5B7B" stroke-width="2" opacity="0.65"/>
<line x1="1100" y1="220" x2="1120" y2="380" stroke="#6C5B7B" stroke-width="2" opacity="0.65"/>
<line x1="1100" y1="220" x2="1020" y2="470" stroke="#6C5B7B" stroke-width="2" opacity="0.65"/>
<line x1="920" y1="380" x2="1120" y2="380" stroke="#6C5B7B" stroke-width="2" opacity="0.65"/>
<line x1="920" y1="380" x2="1020" y2="470" stroke="#6C5B7B" stroke-width="2" opacity="0.65"/>
<line x1="1120" y1="380" x2="1020" y2="470" stroke="#6C5B7B" stroke-width="2" opacity="0.65"/>
<circle cx="940" cy="220" r="23" fill="#EAE3F1" stroke="#6C5B7B" stroke-width="3"/>
<circle cx="1100" cy="220" r="23" fill="#EAE3F1" stroke="#6C5B7B" stroke-width="3"/>
<circle cx="920" cy="380" r="23" fill="#EAE3F1" stroke="#6C5B7B" stroke-width="3"/>
<circle cx="1120" cy="380" r="23" fill="#EAE3F1" stroke="#6C5B7B" stroke-width="3"/>
<circle cx="1020" cy="470" r="23" fill="#EAE3F1" stroke="#6C5B7B" stroke-width="3"/>
<text x="170" y="535" text-anchor="middle" font-family="Arial, Helvetica, sans-serif" font-size="15" font-weight="400" fill="#5B677A">Easy to manage; central device is important</text>
<text x="450" y="535" text-anchor="middle" font-family="Arial, Helvetica, sans-serif" font-size="15" font-weight="400" fill="#5B677A">Simple shared backbone; faults can affect many nodes</text>
<text x="750" y="535" text-anchor="middle" font-family="Arial, Helvetica, sans-serif" font-size="15" font-weight="400" fill="#5B677A">Each node connects to two neighbours</text>
<text x="1030" y="535" text-anchor="middle" font-family="Arial, Helvetica, sans-serif" font-size="15" font-weight="400" fill="#5B677A">Many paths; resilient but expensive</text>
<text x="600" y="650" text-anchor="middle" font-family="Arial, Helvetica, sans-serif" font-size="15" fill="#5B677A">Bridge Course • Unit 1: Computer Fundamentals • Networking and Internet</text>
</svg>