<svg xmlns="http://www.w3.org/2000/svg" width="1200" height="675" viewBox="0 0 1200 675" role="img" aria-labelledby="title desc">
<title id="title">Components of a Complete Computer System</title>
<desc id="desc">Educational infographic: Components of a Complete Computer System</desc>
<defs>
<marker id="arrow" markerWidth="12" markerHeight="12" refX="10" refY="6" orient="auto"><path d="M0,0 L12,6 L0,12 z" fill="#5B677A"/></marker>
<filter id="shadow" x="-20%" y="-20%" width="140%" height="140%"><feDropShadow dx="0" dy="4" stdDeviation="5" flood-opacity="0.15"/></filter>
</defs>
<rect width="1200" height="675" fill="#F5F7FA"/>
<rect width="1200" height="86" fill="#12355B"/>
<text x="48" y="55" font-family="Arial, Helvetica, sans-serif" font-size="34" font-weight="700" fill="white">Components of a Complete Computer System</text>
<circle cx="600" cy="330" r="115" fill="#12355B" filter="url(#shadow)"/>
<text x="600" y="320" text-anchor="middle" font-family="Arial, Helvetica, sans-serif" font-size="24" font-weight="700" fill="white">COMPUTER</text>
<text x="600" y="355" text-anchor="middle" font-family="Arial, Helvetica, sans-serif" font-size="24" font-weight="700" fill="white">SYSTEM</text>
<rect x="60" y="135" width="220" height="110" rx="18" fill="#247BA0" filter="url(#shadow)"/>
<text x="170" y="197" text-anchor="middle" font-family="Arial, Helvetica, sans-serif" font-size="22" font-weight="700" fill="white">Hardware</text>
<line x1="170" y1="190" x2="600" y2="330" stroke="#5B677A" stroke-width="3" marker-end="url(#arrow)"/>
<rect x="490" y="95" width="220" height="110" rx="18" fill="#F28F3B" filter="url(#shadow)"/>
<text x="600" y="157" text-anchor="middle" font-family="Arial, Helvetica, sans-serif" font-size="22" font-weight="700" fill="white">Software</text>
<line x1="600" y1="150" x2="600" y2="330" stroke="#5B677A" stroke-width="3" marker-end="url(#arrow)"/>
<rect x="920" y="135" width="220" height="110" rx="18" fill="#4C956C" filter="url(#shadow)"/>
<text x="1030" y="197" text-anchor="middle" font-family="Arial, Helvetica, sans-serif" font-size="22" font-weight="700" fill="white">Data</text>
<line x1="1030" y1="190" x2="600" y2="330" stroke="#5B677A" stroke-width="3" marker-end="url(#arrow)"/>
<rect x="60" y="425" width="220" height="110" rx="18" fill="#6C5B7B" filter="url(#shadow)"/>
<text x="170" y="487" text-anchor="middle" font-family="Arial, Helvetica, sans-serif" font-size="22" font-weight="700" fill="white">Users</text>
<line x1="170" y1="480" x2="600" y2="330" stroke="#5B677A" stroke-width="3" marker-end="url(#arrow)"/>
<rect x="490" y="470" width="220" height="110" rx="18" fill="#C44536" filter="url(#shadow)"/>
<text x="600" y="532" text-anchor="middle" font-family="Arial, Helvetica, sans-serif" font-size="22" font-weight="700" fill="white">Procedures</text>
<line x1="600" y1="525" x2="600" y2="330" stroke="#5B677A" stroke-width="3" marker-end="url(#arrow)"/>
<rect x="920" y="425" width="220" height="110" rx="18" fill="#118A8A" filter="url(#shadow)"/>
<text x="1030" y="487" text-anchor="middle" font-family="Arial, Helvetica, sans-serif" font-size="22" font-weight="700" fill="white">Networks</text>
<line x1="1030" y1="480" x2="600" y2="330" stroke="#5B677A" stroke-width="3" marker-end="url(#arrow)"/>
<text x="600.0" y="650" text-anchor="middle" font-family="Arial, Helvetica, sans-serif" font-size="15" fill="#5B677A">Bridge Course • Unit 1: Computer Fundamentals</text>
</svg>