<svg xmlns="http://www.w3.org/2000/svg" width="1200" height="675" viewBox="0 0 1200 675" role="img" aria-labelledby="title desc">
<title id="title">Analogue, Digital and Hybrid Computers</title>
<desc id="desc">Educational infographic: Analogue, Digital and Hybrid Computers</desc>
<defs>
<marker id="arrow" markerWidth="12" markerHeight="12" refX="10" refY="6" orient="auto"><path d="M0,0 L12,6 L0,12 z" fill="#5B677A"/></marker>
<filter id="shadow" x="-20%" y="-20%" width="140%" height="140%"><feDropShadow dx="0" dy="4" stdDeviation="5" flood-opacity="0.15"/></filter>
</defs>
<rect width="1200" height="675" fill="#F5F7FA"/>
<rect width="1200" height="86" fill="#12355B"/>
<text x="48" y="55" font-family="Arial, Helvetica, sans-serif" font-size="34" font-weight="700" fill="white">Analogue, Digital and Hybrid Computers</text>
<rect x="70" y="185" width="300" height="330" rx="18" fill="#F28F3B" filter="url(#shadow)"/>
<text x="220" y="250" text-anchor="middle" font-family="Arial, Helvetica, sans-serif" font-size="27" font-weight="700" fill="white">ANALOGUE</text>
<text x="220" y="335" text-anchor="middle" font-family="Arial, Helvetica, sans-serif" font-size="20" font-weight="400" fill="white">
<tspan x="220" dy="0">Continuous physical values</tspan>
<tspan x="220" dy="26">Voltage • Pressure • Speed</tspan>
</text>
<path d="M115 440 C155 385,195 495,235 440 S315 385,340 440" fill="none" stroke="white" stroke-width="6"/>
<rect x="450" y="185" width="300" height="330" rx="18" fill="#247BA0" filter="url(#shadow)"/>
<text x="600" y="250" text-anchor="middle" font-family="Arial, Helvetica, sans-serif" font-size="27" font-weight="700" fill="white">DIGITAL</text>
<text x="600" y="335" text-anchor="middle" font-family="Arial, Helvetica, sans-serif" font-size="20" font-weight="400" fill="white">
<tspan x="600" dy="0">Discrete binary values</tspan>
<tspan x="600" dy="26">Most modern computers</tspan>
</text>
<polyline points="495,455 495,410 555,410 555,455 615,455 615,410 675,410 675,455 720,455" fill="none" stroke="white" stroke-width="6"/>
<rect x="830" y="185" width="300" height="330" rx="18" fill="#118A8A" filter="url(#shadow)"/>
<text x="980" y="250" text-anchor="middle" font-family="Arial, Helvetica, sans-serif" font-size="27" font-weight="700" fill="white">HYBRID</text>
<text x="980" y="335" text-anchor="middle" font-family="Arial, Helvetica, sans-serif" font-size="20" font-weight="400" fill="white">
<tspan x="980" dy="0">Analogue measurement +</tspan>
<tspan x="980" dy="26">Digital processing</tspan>
</text>
<text x="980" y="455" text-anchor="middle" font-family="Arial, Helvetica, sans-serif" font-size="30" font-weight="700" fill="white">~  →  0 / 1</text>
<text x="600.0" y="650" text-anchor="middle" font-family="Arial, Helvetica, sans-serif" font-size="15" fill="#5B677A">Bridge Course • Unit 1: Computer Fundamentals</text>
</svg>