<svg xmlns="http://www.w3.org/2000/svg" width="1200" height="675" viewBox="0 0 1200 675" role="img" aria-labelledby="title desc">
<title id="title">Applications of Computers</title>
<desc id="desc">Educational infographic: Applications of Computers</desc>
<defs>
<marker id="arrow" markerWidth="12" markerHeight="12" refX="10" refY="6" orient="auto"><path d="M0,0 L12,6 L0,12 z" fill="#5B677A"/></marker>
<filter id="shadow" x="-20%" y="-20%" width="140%" height="140%"><feDropShadow dx="0" dy="4" stdDeviation="5" flood-opacity="0.15"/></filter>
</defs>
<rect width="1200" height="675" fill="#F5F7FA"/>
<rect width="1200" height="86" fill="#12355B"/>
<text x="48" y="55" font-family="Arial, Helvetica, sans-serif" font-size="34" font-weight="700" fill="white">Applications of Computers</text>
<rect x="45" y="125" width="250" height="105" rx="18" fill="#247BA0" filter="url(#shadow)"/>
<text x="170" y="187" text-anchor="middle" font-family="Arial, Helvetica, sans-serif" font-size="20" font-weight="700" fill="white">Education</text>
<rect x="335" y="125" width="250" height="105" rx="18" fill="#118A8A" filter="url(#shadow)"/>
<text x="460" y="187" text-anchor="middle" font-family="Arial, Helvetica, sans-serif" font-size="20" font-weight="700" fill="white">Business</text>
<rect x="625" y="125" width="250" height="105" rx="18" fill="#6C5B7B" filter="url(#shadow)"/>
<text x="750" y="187" text-anchor="middle" font-family="Arial, Helvetica, sans-serif" font-size="20" font-weight="700" fill="white">Banking</text>
<rect x="915" y="125" width="250" height="105" rx="18" fill="#F28F3B" filter="url(#shadow)"/>
<text x="1040" y="187" text-anchor="middle" font-family="Arial, Helvetica, sans-serif" font-size="20" font-weight="700" fill="white">Healthcare</text>
<rect x="45" y="280" width="250" height="105" rx="18" fill="#4C956C" filter="url(#shadow)"/>
<text x="170" y="342" text-anchor="middle" font-family="Arial, Helvetica, sans-serif" font-size="20" font-weight="700" fill="white">Science</text>
<rect x="335" y="280" width="250" height="105" rx="18" fill="#D66BA0" filter="url(#shadow)"/>
<text x="460" y="342" text-anchor="middle" font-family="Arial, Helvetica, sans-serif" font-size="20" font-weight="700" fill="white">Government</text>
<rect x="625" y="280" width="250" height="105" rx="18" fill="#C44536" filter="url(#shadow)"/>
<text x="750" y="342" text-anchor="middle" font-family="Arial, Helvetica, sans-serif" font-size="20" font-weight="700" fill="white">Communication</text>
<rect x="915" y="280" width="250" height="105" rx="18" fill="#12355B" filter="url(#shadow)"/>
<text x="1040" y="342" text-anchor="middle" font-family="Arial, Helvetica, sans-serif" font-size="20" font-weight="700" fill="white">Entertainment</text>
<rect x="45" y="435" width="250" height="105" rx="18" fill="#247BA0" filter="url(#shadow)"/>
<text x="170" y="497" text-anchor="middle" font-family="Arial, Helvetica, sans-serif" font-size="20" font-weight="700" fill="white">Transport</text>
<rect x="335" y="435" width="250" height="105" rx="18" fill="#118A8A" filter="url(#shadow)"/>
<text x="460" y="497" text-anchor="middle" font-family="Arial, Helvetica, sans-serif" font-size="20" font-weight="700" fill="white">Engineering</text>
<rect x="625" y="435" width="250" height="105" rx="18" fill="#6C5B7B" filter="url(#shadow)"/>
<text x="750" y="497" text-anchor="middle" font-family="Arial, Helvetica, sans-serif" font-size="20" font-weight="700" fill="white">Data Science</text>
<rect x="915" y="435" width="250" height="105" rx="18" fill="#F28F3B" filter="url(#shadow)"/>
<text x="1040" y="497" text-anchor="middle" font-family="Arial, Helvetica, sans-serif" font-size="20" font-weight="700" fill="white">Artificial Intelligence</text>
<text x="600.0" y="650" text-anchor="middle" font-family="Arial, Helvetica, sans-serif" font-size="15" fill="#5B677A">Bridge Course • Unit 1: Computer Fundamentals</text>
</svg>