<svg xmlns="http://www.w3.org/2000/svg" width="1200" height="675" viewBox="0 0 1200 675" role="img" aria-labelledby="title desc">
<title id="title">How Computers Communicate Through a Network</title>
<desc id="desc">Educational infographic: How Computers Communicate Through a Network</desc>
<defs>
<marker id="arrow" markerWidth="12" markerHeight="12" refX="10" refY="6" orient="auto"><path d="M0,0 L12,6 L0,12 z" fill="#5B677A"/></marker>
<filter id="shadow" x="-20%" y="-20%" width="140%" height="140%"><feDropShadow dx="0" dy="4" stdDeviation="5" flood-opacity="0.15"/></filter>
</defs>
<rect width="1200" height="675" fill="#F5F7FA"/>
<rect width="1200" height="86" fill="#12355B"/>
<text x="48" y="55" font-family="Arial, Helvetica, sans-serif" font-size="34" font-weight="700" fill="white">How Computers Communicate Through a Network</text>
<circle cx="600" cy="340" r="90" fill="#12355B" filter="url(#shadow)"/>
<text x="600" y="333" text-anchor="middle" font-family="Arial, Helvetica, sans-serif" font-size="24" font-weight="700" fill="white">NETWORK</text>
<text x="600" y="367" text-anchor="middle" font-family="Arial, Helvetica, sans-serif" font-size="18" font-weight="400" fill="white">or Internet</text>
<rect x="100" y="140" width="180" height="100" rx="18" fill="#247BA0" filter="url(#shadow)"/>
<text x="190" y="197" text-anchor="middle" font-family="Arial, Helvetica, sans-serif" font-size="21" font-weight="700" fill="white">Laptop</text>
<line x1="190" y1="190" x2="600" y2="340" stroke="#5B677A" stroke-width="3" marker-end="url(#arrow)"/>
<rect x="920" y="140" width="180" height="100" rx="18" fill="#118A8A" filter="url(#shadow)"/>
<text x="1010" y="197" text-anchor="middle" font-family="Arial, Helvetica, sans-serif" font-size="21" font-weight="700" fill="white">Phone</text>
<line x1="1010" y1="190" x2="600" y2="340" stroke="#5B677A" stroke-width="3" marker-end="url(#arrow)"/>
<rect x="100" y="440" width="180" height="100" rx="18" fill="#F28F3B" filter="url(#shadow)"/>
<text x="190" y="497" text-anchor="middle" font-family="Arial, Helvetica, sans-serif" font-size="21" font-weight="700" fill="white">Server</text>
<line x1="190" y1="490" x2="600" y2="340" stroke="#5B677A" stroke-width="3" marker-end="url(#arrow)"/>
<rect x="920" y="440" width="180" height="100" rx="18" fill="#6C5B7B" filter="url(#shadow)"/>
<text x="1010" y="497" text-anchor="middle" font-family="Arial, Helvetica, sans-serif" font-size="21" font-weight="700" fill="white">Cloud</text>
<line x1="1010" y1="490" x2="600" y2="340" stroke="#5B677A" stroke-width="3" marker-end="url(#arrow)"/>
<rect x="510" y="495" width="180" height="100" rx="18" fill="#4C956C" filter="url(#shadow)"/>
<text x="600" y="552" text-anchor="middle" font-family="Arial, Helvetica, sans-serif" font-size="21" font-weight="700" fill="white">Router</text>
<line x1="600" y1="545" x2="600" y2="340" stroke="#5B677A" stroke-width="3" marker-end="url(#arrow)"/>
<text x="600.0" y="650" text-anchor="middle" font-family="Arial, Helvetica, sans-serif" font-size="15" fill="#5B677A">Bridge Course • Unit 1: Computer Fundamentals</text>
</svg>