<svg xmlns="http://www.w3.org/2000/svg" width="1200" height="675" viewBox="0 0 1200 675" role="img" aria-labelledby="title desc">
<title id="title">Classifying Computer Components in the Lab</title>
<desc id="desc">Educational infographic: Classifying Computer Components in the Lab</desc>
<defs>
<marker id="arrow" markerWidth="12" markerHeight="12" refX="10" refY="6" orient="auto"><path d="M0,0 L12,6 L0,12 z" fill="#5B677A"/></marker>
<filter id="shadow" x="-20%" y="-20%" width="140%" height="140%"><feDropShadow dx="0" dy="4" stdDeviation="5" flood-opacity="0.15"/></filter>
</defs>
<rect width="1200" height="675" fill="#F5F7FA"/>
<rect width="1200" height="86" fill="#12355B"/>
<text x="48" y="55" font-family="Arial, Helvetica, sans-serif" font-size="34" font-weight="700" fill="white">Classifying Computer Components in the Lab</text>
<rect x="55" y="135" width="250" height="70" rx="18" fill="#12355B"/>
<text x="180.0" y="180" text-anchor="middle" font-family="Arial, Helvetica, sans-serif" font-size="17" font-weight="700" fill="white">Component</text>
<rect x="325" y="135" width="255" height="70" rx="18" fill="#12355B"/>
<text x="452.5" y="180" text-anchor="middle" font-family="Arial, Helvetica, sans-serif" font-size="17" font-weight="700" fill="white">Hardware / Software</text>
<rect x="600" y="135" width="230" height="70" rx="18" fill="#12355B"/>
<text x="715.0" y="180" text-anchor="middle" font-family="Arial, Helvetica, sans-serif" font-size="17" font-weight="700" fill="white">Function</text>
<rect x="850" y="135" width="295" height="70" rx="18" fill="#12355B"/>
<text x="997.5" y="180" text-anchor="middle" font-family="Arial, Helvetica, sans-serif" font-size="17" font-weight="700" fill="white">Purpose</text>
<rect x="55" y="215" width="250" height="68" rx="0" fill="#FFFFFF" stroke="#D5DCE5" stroke-width="2"/>
<text x="67" y="257" text-anchor="start" font-family="Arial, Helvetica, sans-serif" font-size="16" font-weight="400" fill="#1F2937">Keyboard</text>
<rect x="325" y="215" width="255" height="68" rx="0" fill="#FFFFFF" stroke="#D5DCE5" stroke-width="2"/>
<text x="337" y="257" text-anchor="start" font-family="Arial, Helvetica, sans-serif" font-size="16" font-weight="400" fill="#1F2937">Hardware</text>
<rect x="600" y="215" width="230" height="68" rx="0" fill="#FFFFFF" stroke="#D5DCE5" stroke-width="2"/>
<text x="612" y="257" text-anchor="start" font-family="Arial, Helvetica, sans-serif" font-size="16" font-weight="400" fill="#1F2937">Input</text>
<rect x="850" y="215" width="295" height="68" rx="0" fill="#FFFFFF" stroke="#D5DCE5" stroke-width="2"/>
<text x="862" y="257" text-anchor="start" font-family="Arial, Helvetica, sans-serif" font-size="16" font-weight="400" fill="#1F2937">Enter text</text>
<rect x="55" y="290" width="250" height="68" rx="0" fill="#EAF0F6" stroke="#D5DCE5" stroke-width="2"/>
<text x="67" y="332" text-anchor="start" font-family="Arial, Helvetica, sans-serif" font-size="16" font-weight="400" fill="#1F2937">CPU</text>
<rect x="325" y="290" width="255" height="68" rx="0" fill="#EAF0F6" stroke="#D5DCE5" stroke-width="2"/>
<text x="337" y="332" text-anchor="start" font-family="Arial, Helvetica, sans-serif" font-size="16" font-weight="400" fill="#1F2937">Hardware</text>
<rect x="600" y="290" width="230" height="68" rx="0" fill="#EAF0F6" stroke="#D5DCE5" stroke-width="2"/>
<text x="612" y="332" text-anchor="start" font-family="Arial, Helvetica, sans-serif" font-size="16" font-weight="400" fill="#1F2937">Processing</text>
<rect x="850" y="290" width="295" height="68" rx="0" fill="#EAF0F6" stroke="#D5DCE5" stroke-width="2"/>
<text x="862" y="332" text-anchor="start" font-family="Arial, Helvetica, sans-serif" font-size="16" font-weight="400" fill="#1F2937">Execute instructions</text>
<rect x="55" y="365" width="250" height="68" rx="0" fill="#FFFFFF" stroke="#D5DCE5" stroke-width="2"/>
<text x="67" y="407" text-anchor="start" font-family="Arial, Helvetica, sans-serif" font-size="16" font-weight="400" fill="#1F2937">SSD</text>
<rect x="325" y="365" width="255" height="68" rx="0" fill="#FFFFFF" stroke="#D5DCE5" stroke-width="2"/>
<text x="337" y="407" text-anchor="start" font-family="Arial, Helvetica, sans-serif" font-size="16" font-weight="400" fill="#1F2937">Hardware</text>
<rect x="600" y="365" width="230" height="68" rx="0" fill="#FFFFFF" stroke="#D5DCE5" stroke-width="2"/>
<text x="612" y="407" text-anchor="start" font-family="Arial, Helvetica, sans-serif" font-size="16" font-weight="400" fill="#1F2937">Storage</text>
<rect x="850" y="365" width="295" height="68" rx="0" fill="#FFFFFF" stroke="#D5DCE5" stroke-width="2"/>
<text x="862" y="407" text-anchor="start" font-family="Arial, Helvetica, sans-serif" font-size="16" font-weight="400" fill="#1F2937">Keep files</text>
<rect x="55" y="440" width="250" height="68" rx="0" fill="#EAF0F6" stroke="#D5DCE5" stroke-width="2"/>
<text x="67" y="482" text-anchor="start" font-family="Arial, Helvetica, sans-serif" font-size="16" font-weight="400" fill="#1F2937">Windows / Linux</text>
<rect x="325" y="440" width="255" height="68" rx="0" fill="#EAF0F6" stroke="#D5DCE5" stroke-width="2"/>
<text x="337" y="482" text-anchor="start" font-family="Arial, Helvetica, sans-serif" font-size="16" font-weight="400" fill="#1F2937">Software</text>
<rect x="600" y="440" width="230" height="68" rx="0" fill="#EAF0F6" stroke="#D5DCE5" stroke-width="2"/>
<text x="612" y="482" text-anchor="start" font-family="Arial, Helvetica, sans-serif" font-size="16" font-weight="400" fill="#1F2937">System</text>
<rect x="850" y="440" width="295" height="68" rx="0" fill="#EAF0F6" stroke="#D5DCE5" stroke-width="2"/>
<text x="862" y="482" text-anchor="start" font-family="Arial, Helvetica, sans-serif" font-size="16" font-weight="400" fill="#1F2937">Manage resources</text>
<rect x="55" y="515" width="250" height="68" rx="0" fill="#FFFFFF" stroke="#D5DCE5" stroke-width="2"/>
<text x="67" y="557" text-anchor="start" font-family="Arial, Helvetica, sans-serif" font-size="16" font-weight="400" fill="#1F2937">Web browser</text>
<rect x="325" y="515" width="255" height="68" rx="0" fill="#FFFFFF" stroke="#D5DCE5" stroke-width="2"/>
<text x="337" y="557" text-anchor="start" font-family="Arial, Helvetica, sans-serif" font-size="16" font-weight="400" fill="#1F2937">Software</text>
<rect x="600" y="515" width="230" height="68" rx="0" fill="#FFFFFF" stroke="#D5DCE5" stroke-width="2"/>
<text x="612" y="557" text-anchor="start" font-family="Arial, Helvetica, sans-serif" font-size="16" font-weight="400" fill="#1F2937">Application</text>
<rect x="850" y="515" width="295" height="68" rx="0" fill="#FFFFFF" stroke="#D5DCE5" stroke-width="2"/>
<text x="862" y="557" text-anchor="start" font-family="Arial, Helvetica, sans-serif" font-size="16" font-weight="400" fill="#1F2937">Access websites</text>
<text x="600.0" y="650" text-anchor="middle" font-family="Arial, Helvetica, sans-serif" font-size="15" fill="#5B677A">Bridge Course • Unit 1: Computer Fundamentals</text>
</svg>